<mxfile modified="2024-05-11T13:33:19.128Z" host="app.diagrams.net" agent="Mozilla/5.0 (Macintosh; Intel Mac OS X 10_15_7) AppleWebKit/605.1.15 (KHTML, like Gecko) Version/17.0 Safari/605.1.15" etag="6j8Mcss7UfVky1M6DAYO" version="24.4.0" type="github">
  <diagram id="l8hXMBHkgcEJcSW0mbfh" name="Page-1">
    <mxGraphModel dx="1053" dy="954" grid="1" gridSize="10" guides="1" tooltips="1" connect="1" arrows="1" fold="1" page="1" pageScale="1" pageWidth="1169" pageHeight="827" math="0" shadow="0">
      <root>
        <mxCell id="0" />
        <mxCell id="1" parent="0" />
        <mxCell id="2mdyV1yEY9atnn7v1A7B-189" value="" style="shape=parallelogram;perimeter=parallelogramPerimeter;whiteSpace=wrap;html=1;fixedSize=1;direction=west;rotation=-235;flipH=1;flipV=0;size=6.75;connectable=0;allowArrows=0;" vertex="1" parent="1">
          <mxGeometry x="875.5" y="484.90000000000003" width="24.5" height="10" as="geometry" />
        </mxCell>
        <mxCell id="5Y2B0rHB4n81U8_gh0Yu-9" value="" style="shape=parallelogram;perimeter=parallelogramPerimeter;whiteSpace=wrap;html=1;fixedSize=1;size=85;" parent="1" vertex="1">
          <mxGeometry x="96" y="594" width="900" height="220" as="geometry" />
        </mxCell>
        <mxCell id="2mdyV1yEY9atnn7v1A7B-141" value="" style="group" vertex="1" connectable="0" parent="1">
          <mxGeometry x="151" y="593" width="854" height="77" as="geometry" />
        </mxCell>
        <mxCell id="2mdyV1yEY9atnn7v1A7B-142" value="" style="shape=parallelogram;perimeter=parallelogramPerimeter;whiteSpace=wrap;html=1;fixedSize=1;size=22;fillColor=#f8cecc;strokeColor=#b85450;" vertex="1" parent="2mdyV1yEY9atnn7v1A7B-141">
          <mxGeometry x="483.25" width="360.75" height="60" as="geometry" />
        </mxCell>
        <mxCell id="2mdyV1yEY9atnn7v1A7B-143" value="" style="shape=parallelogram;perimeter=parallelogramPerimeter;whiteSpace=wrap;html=1;fixedSize=1;size=20;fillColor=#f8cecc;strokeColor=#b85450;" vertex="1" parent="2mdyV1yEY9atnn7v1A7B-141">
          <mxGeometry x="10" y="0.7" width="494" height="60" as="geometry" />
        </mxCell>
        <mxCell id="2mdyV1yEY9atnn7v1A7B-144" value="" style="endArrow=none;html=1;rounded=0;exitX=0.461;exitY=0.988;exitDx=0;exitDy=0;exitPerimeter=0;" edge="1" parent="2mdyV1yEY9atnn7v1A7B-141" source="2mdyV1yEY9atnn7v1A7B-143">
          <mxGeometry width="50" height="50" relative="1" as="geometry">
            <mxPoint x="197.34324324324325" y="60.99999999999996" as="sourcePoint" />
            <mxPoint x="819" y="60" as="targetPoint" />
            <Array as="points">
              <mxPoint x="362.37297297297295" y="60.99999999999996" />
            </Array>
          </mxGeometry>
        </mxCell>
        <mxCell id="2mdyV1yEY9atnn7v1A7B-147" value="" style="endArrow=none;html=1;rounded=0;entryX=0.399;entryY=0.999;entryDx=0;entryDy=0;entryPerimeter=0;exitX=0.163;exitY=1.005;exitDx=0;exitDy=0;exitPerimeter=0;" edge="1" parent="2mdyV1yEY9atnn7v1A7B-141" source="2mdyV1yEY9atnn7v1A7B-143" target="2mdyV1yEY9atnn7v1A7B-143">
          <mxGeometry width="50" height="50" relative="1" as="geometry">
            <mxPoint x="119" y="61" as="sourcePoint" />
            <mxPoint x="104.53445945945946" y="62.61999999999996" as="targetPoint" />
            <Array as="points" />
          </mxGeometry>
        </mxCell>
        <mxCell id="5Y2B0rHB4n81U8_gh0Yu-69" value="" style="image;html=1;image=img/lib/clip_art/computers/Server_Rack_128x128.png" parent="2mdyV1yEY9atnn7v1A7B-141" vertex="1">
          <mxGeometry x="541.2513513513513" width="46.16216216216217" height="29.99999999999998" as="geometry" />
        </mxCell>
        <mxCell id="2mdyV1yEY9atnn7v1A7B-156" value="" style="image;html=1;image=img/lib/clip_art/computers/Server_Rack_128x128.png" vertex="1" parent="2mdyV1yEY9atnn7v1A7B-141">
          <mxGeometry x="610.4945945945947" width="46.16216216216217" height="29.99999999999998" as="geometry" />
        </mxCell>
        <mxCell id="2mdyV1yEY9atnn7v1A7B-151" value="" style="image;html=1;image=img/lib/clip_art/computers/Server_Rack_128x128.png" vertex="1" parent="2mdyV1yEY9atnn7v1A7B-141">
          <mxGeometry x="564.3324324324325" width="46.16216216216217" height="29.99999999999998" as="geometry" />
        </mxCell>
        <mxCell id="2mdyV1yEY9atnn7v1A7B-155" value="" style="image;html=1;image=img/lib/clip_art/computers/Server_Rack_128x128.png" vertex="1" parent="2mdyV1yEY9atnn7v1A7B-141">
          <mxGeometry x="587.4135135135135" width="46.16216216216217" height="29.99999999999998" as="geometry" />
        </mxCell>
        <mxCell id="2mdyV1yEY9atnn7v1A7B-154" value="" style="image;html=1;image=img/lib/clip_art/computers/Server_Rack_128x128.png" vertex="1" parent="2mdyV1yEY9atnn7v1A7B-141">
          <mxGeometry x="679.0040540540541" y="0.6999999999999815" width="46.16216216216217" height="29.99999999999998" as="geometry" />
        </mxCell>
        <mxCell id="2mdyV1yEY9atnn7v1A7B-247" value="Anflugkontrolle" style="text;strokeColor=none;align=center;fillColor=none;html=1;verticalAlign=middle;whiteSpace=wrap;rounded=0;" vertex="1" parent="2mdyV1yEY9atnn7v1A7B-141">
          <mxGeometry x="-21" y="32.700000000000045" width="170" height="30" as="geometry" />
        </mxCell>
        <mxCell id="2mdyV1yEY9atnn7v1A7B-251" value="Server (Flugsicherungsanalagen)" style="text;strokeColor=none;align=center;fillColor=none;html=1;verticalAlign=middle;whiteSpace=wrap;rounded=0;" vertex="1" parent="2mdyV1yEY9atnn7v1A7B-141">
          <mxGeometry x="479.3299999999999" y="30" width="170" height="30" as="geometry" />
        </mxCell>
        <mxCell id="2mdyV1yEY9atnn7v1A7B-152" value="" style="image;html=1;image=img/lib/clip_art/computers/Server_Rack_128x128.png" vertex="1" parent="2mdyV1yEY9atnn7v1A7B-141">
          <mxGeometry x="636.58" y="0.7000000000000002" width="40" height="30" as="geometry" />
        </mxCell>
        <mxCell id="2mdyV1yEY9atnn7v1A7B-153" value="" style="image;html=1;image=img/lib/clip_art/computers/Server_Rack_128x128.png" vertex="1" parent="2mdyV1yEY9atnn7v1A7B-141">
          <mxGeometry x="658.66" y="0.7000000000000002" width="40" height="30" as="geometry" />
        </mxCell>
        <mxCell id="5Y2B0rHB4n81U8_gh0Yu-13" value="" style="shape=parallelogram;perimeter=parallelogramPerimeter;whiteSpace=wrap;html=1;fixedSize=1;size=84;" parent="1" vertex="1">
          <mxGeometry x="96" y="360" width="894" height="220" as="geometry" />
        </mxCell>
        <mxCell id="5Y2B0rHB4n81U8_gh0Yu-14" value="" style="shape=parallelogram;perimeter=parallelogramPerimeter;whiteSpace=wrap;html=1;fixedSize=1;size=90.00000000000023;fillColor=#f8cecc;strokeColor=#b85450;" parent="1" vertex="1">
          <mxGeometry x="640" y="18" width="357" height="182" as="geometry" />
        </mxCell>
        <mxCell id="8--HhbSZYtI3ddgJnD71-25" style="edgeStyle=none;rounded=0;orthogonalLoop=1;jettySize=auto;html=1;sourcePerimeterSpacing=5;endArrow=none;endFill=0;targetPerimeterSpacing=5;strokeColor=#3112FF;" parent="1" edge="1">
          <mxGeometry relative="1" as="geometry">
            <mxPoint x="40" y="780" as="sourcePoint" />
            <mxPoint x="40" y="320" as="targetPoint" />
          </mxGeometry>
        </mxCell>
        <mxCell id="8--HhbSZYtI3ddgJnD71-24" style="edgeStyle=none;rounded=0;orthogonalLoop=1;jettySize=auto;html=1;sourcePerimeterSpacing=5;endArrow=none;endFill=0;targetPerimeterSpacing=5;strokeColor=#2E17FF;" parent="1" edge="1" source="2mdyV1yEY9atnn7v1A7B-3">
          <mxGeometry relative="1" as="geometry">
            <mxPoint x="40" y="421" as="sourcePoint" />
            <mxPoint x="780" y="413" as="targetPoint" />
          </mxGeometry>
        </mxCell>
        <mxCell id="5Y2B0rHB4n81U8_gh0Yu-15" value="" style="endArrow=none;dashed=1;html=1;dashPattern=1 3;strokeWidth=2;rounded=0;entryX=0.935;entryY=0.989;entryDx=0;entryDy=0;entryPerimeter=0;exitX=0.934;exitY=0.997;exitDx=0;exitDy=0;exitPerimeter=0;" parent="1" edge="1">
          <mxGeometry width="50" height="50" relative="1" as="geometry">
            <mxPoint x="899.9999999999999" y="814.0000000000001" as="sourcePoint" />
            <mxPoint x="901.9" y="578.2399999999999" as="targetPoint" />
            <Array as="points">
              <mxPoint x="902.4" y="690.66" />
            </Array>
          </mxGeometry>
        </mxCell>
        <mxCell id="5Y2B0rHB4n81U8_gh0Yu-16" value="" style="endArrow=none;dashed=1;html=1;dashPattern=1 3;strokeWidth=2;rounded=0;entryX=0.935;entryY=0.989;entryDx=0;entryDy=0;entryPerimeter=0;exitX=0.934;exitY=0.997;exitDx=0;exitDy=0;exitPerimeter=0;" parent="1" edge="1">
          <mxGeometry width="50" height="50" relative="1" as="geometry">
            <mxPoint x="993" y="594" as="sourcePoint" />
            <mxPoint x="995" y="359" as="targetPoint" />
          </mxGeometry>
        </mxCell>
        <mxCell id="5Y2B0rHB4n81U8_gh0Yu-17" value="" style="endArrow=none;dashed=1;html=1;dashPattern=1 3;strokeWidth=2;rounded=0;entryX=0.935;entryY=0.989;entryDx=0;entryDy=0;entryPerimeter=0;exitX=0.934;exitY=0.997;exitDx=0;exitDy=0;exitPerimeter=0;" parent="1" edge="1">
          <mxGeometry width="50" height="50" relative="1" as="geometry">
            <mxPoint x="96" y="814" as="sourcePoint" />
            <mxPoint x="98" y="579" as="targetPoint" />
          </mxGeometry>
        </mxCell>
        <mxCell id="5Y2B0rHB4n81U8_gh0Yu-18" value="" style="endArrow=none;dashed=1;html=1;dashPattern=1 3;strokeWidth=2;rounded=0;entryX=0.095;entryY=0.009;entryDx=0;entryDy=0;entryPerimeter=0;" parent="1" edge="1" target="5Y2B0rHB4n81U8_gh0Yu-13">
          <mxGeometry width="50" height="50" relative="1" as="geometry">
            <mxPoint x="180" y="595" as="sourcePoint" />
            <mxPoint x="180" y="370" as="targetPoint" />
          </mxGeometry>
        </mxCell>
        <mxCell id="5Y2B0rHB4n81U8_gh0Yu-19" value="" style="endArrow=none;dashed=1;html=1;dashPattern=1 3;strokeWidth=2;rounded=0;entryX=1;entryY=0;entryDx=0;entryDy=0;exitX=0.934;exitY=0.997;exitDx=0;exitDy=0;exitPerimeter=0;" parent="1" target="5Y2B0rHB4n81U8_gh0Yu-14" edge="1">
          <mxGeometry width="50" height="50" relative="1" as="geometry">
            <mxPoint x="993" y="361.5" as="sourcePoint" />
            <mxPoint x="995" y="126.5" as="targetPoint" />
          </mxGeometry>
        </mxCell>
        <mxCell id="5Y2B0rHB4n81U8_gh0Yu-20" value="" style="endArrow=none;dashed=1;html=1;dashPattern=1 3;strokeWidth=2;rounded=0;" parent="1" edge="1">
          <mxGeometry width="50" height="50" relative="1" as="geometry">
            <mxPoint x="904" y="580" as="sourcePoint" />
            <mxPoint x="904" y="200" as="targetPoint" />
          </mxGeometry>
        </mxCell>
        <mxCell id="5Y2B0rHB4n81U8_gh0Yu-21" value="" style="endArrow=none;dashed=1;html=1;dashPattern=1 3;strokeWidth=2;rounded=0;exitX=0.934;exitY=0.997;exitDx=0;exitDy=0;exitPerimeter=0;" parent="1" edge="1">
          <mxGeometry width="50" height="50" relative="1" as="geometry">
            <mxPoint x="640" y="577" as="sourcePoint" />
            <mxPoint x="644" y="197" as="targetPoint" />
          </mxGeometry>
        </mxCell>
        <mxCell id="5Y2B0rHB4n81U8_gh0Yu-27" value="" style="endArrow=none;dashed=1;html=1;dashPattern=1 3;strokeWidth=2;rounded=0;exitX=0.934;exitY=0.997;exitDx=0;exitDy=0;exitPerimeter=0;" parent="1" target="5Y2B0rHB4n81U8_gh0Yu-9" edge="1">
          <mxGeometry width="50" height="50" relative="1" as="geometry">
            <mxPoint x="190" y="594" as="sourcePoint" />
            <mxPoint x="214.87999999999988" y="555.472" as="targetPoint" />
          </mxGeometry>
        </mxCell>
        <mxCell id="5Y2B0rHB4n81U8_gh0Yu-102" style="edgeStyle=none;rounded=0;orthogonalLoop=1;jettySize=auto;html=1;sourcePerimeterSpacing=5;endArrow=none;endFill=0;targetPerimeterSpacing=5;strokeColor=#3112FF;" parent="1" edge="1">
          <mxGeometry relative="1" as="geometry">
            <mxPoint x="780" y="414" as="sourcePoint" />
            <mxPoint x="779.84" y="154" as="targetPoint" />
          </mxGeometry>
        </mxCell>
        <mxCell id="5Y2B0rHB4n81U8_gh0Yu-110" value="" style="endArrow=none;dashed=1;html=1;dashPattern=1 3;strokeWidth=2;rounded=0;entryX=0.25;entryY=0;entryDx=0;entryDy=0;exitX=0.934;exitY=0.997;exitDx=0;exitDy=0;exitPerimeter=0;" parent="1" target="5Y2B0rHB4n81U8_gh0Yu-14" edge="1">
          <mxGeometry width="50" height="50" relative="1" as="geometry">
            <mxPoint x="730" y="360" as="sourcePoint" />
            <mxPoint x="734" y="16.5" as="targetPoint" />
          </mxGeometry>
        </mxCell>
        <mxCell id="5Y2B0rHB4n81U8_gh0Yu-117" value="Organisationsnetzwerk" style="text;strokeColor=none;align=center;fillColor=none;html=1;verticalAlign=middle;whiteSpace=wrap;rounded=0;" parent="1" vertex="1">
          <mxGeometry x="40" y="286" width="60" height="30" as="geometry" />
        </mxCell>
        <mxCell id="5Y2B0rHB4n81U8_gh0Yu-138" value="" style="endArrow=none;html=1;rounded=0;strokeColor=#FF0000;entryX=0.271;entryY=0.529;entryDx=0;entryDy=0;entryPerimeter=0;" parent="1" source="5Y2B0rHB4n81U8_gh0Yu-163" target="5Y2B0rHB4n81U8_gh0Yu-137" edge="1">
          <mxGeometry width="50" height="50" relative="1" as="geometry">
            <mxPoint x="868" y="689.752424242424" as="sourcePoint" />
            <mxPoint x="1038" y="685.5099999999998" as="targetPoint" />
            <Array as="points" />
          </mxGeometry>
        </mxCell>
        <mxCell id="5Y2B0rHB4n81U8_gh0Yu-139" value="" style="endArrow=none;html=1;rounded=0;exitX=0.075;exitY=0.5;exitDx=0;exitDy=0;strokeColor=#FF0000;exitPerimeter=0;" parent="1" source="5Y2B0rHB4n81U8_gh0Yu-140" target="5Y2B0rHB4n81U8_gh0Yu-137" edge="1">
          <mxGeometry width="50" height="50" relative="1" as="geometry">
            <mxPoint x="1059" y="619" as="sourcePoint" />
            <mxPoint x="1080" y="540" as="targetPoint" />
          </mxGeometry>
        </mxCell>
        <mxCell id="5Y2B0rHB4n81U8_gh0Yu-137" value="" style="html=1;strokeWidth=1;shadow=0;dashed=0;shape=mxgraph.ios7.misc.vpn;fillColor=#007AFF;strokeColor=none;buttonText=;strokeColor2=#222222;fontColor=#222222;fontSize=8;verticalLabelPosition=bottom;verticalAlign=top;align=center;sketch=0;" parent="1" vertex="1">
          <mxGeometry x="1070" y="678" width="30" height="28.5" as="geometry" />
        </mxCell>
        <mxCell id="5Y2B0rHB4n81U8_gh0Yu-140" value="" style="sketch=0;aspect=fixed;pointerEvents=1;shadow=0;dashed=0;html=1;strokeColor=none;labelPosition=center;verticalLabelPosition=bottom;verticalAlign=top;align=center;fillColor=#00188D;shape=mxgraph.mscae.enterprise.maintenance" parent="1" vertex="1">
          <mxGeometry x="1110" y="611.5" width="30.42" height="39" as="geometry" />
        </mxCell>
        <mxCell id="5Y2B0rHB4n81U8_gh0Yu-147" value="" style="shape=image;verticalLabelPosition=bottom;verticalAlign=top;imageAspect=0;aspect=fixed;image=data:image/svg+xml,PHN2ZyB4bWxucz0iaHR0cDovL3d3dy53My5vcmcvMjAwMC9zdmciIHZlcnNpb249IjEiIHZpZXdCb3g9IjAgMCA0OCA0OCIgZW5hYmxlLWJhY2tncm91bmQ9Im5ldyAwIDAgNDggNDgiPiYjeGE7ICAgIDxjaXJjbGUgZmlsbD0iI0ZGQTcyNiIgY3g9IjEyIiBjeT0iMjEiIHI9IjUiLz4mI3hhOyAgICA8ZyBmaWxsPSIjNDU1QTY0Ij4mI3hhOyAgICAgICAgPHBhdGggZD0iTTIsMzQuN2MwLDAsMi44LTYuMywxMC02LjNzMTAsNi4zLDEwLDYuM1YzOEgyVjM0Ljd6Ii8+JiN4YTsgICAgICAgIDxwYXRoIGQ9Ik00NiwzNC43YzAsMC0yLjgtNi4zLTEwLTYuM3MtMTAsNi4zLTEwLDYuM1YzOGgyMFYzNC43eiIvPiYjeGE7ICAgIDwvZz4mI3hhOyAgICA8Y2lyY2xlIGZpbGw9IiNGRkI3NEQiIGN4PSIyNCIgY3k9IjE3IiByPSI2Ii8+JiN4YTsgICAgPHBhdGggZmlsbD0iIzYwN0Q4QiIgZD0iTTM2LDM0LjFjMCwwLTMuMy03LjUtMTItNy41cy0xMiw3LjUtMTIsNy41VjM4aDI0VjM0LjF6Ii8+JiN4YTsgICAgPGNpcmNsZSBmaWxsPSIjRkZBNzI2IiBjeD0iMzYiIGN5PSIyMSIgcj0iNSIvPiYjeGE7ICAgIDxjaXJjbGUgZmlsbD0iI0ZGQTcyNiIgY3g9IjEyIiBjeT0iMjEiIHI9IjUiLz4mI3hhOyAgICA8Y2lyY2xlIGZpbGw9IiNGRkE3MjYiIGN4PSIzNiIgY3k9IjIxIiByPSI1Ii8+JiN4YTs8L3N2Zz4=;" parent="1" vertex="1">
          <mxGeometry x="1092.42" y="509" width="48" height="48" as="geometry" />
        </mxCell>
        <mxCell id="5Y2B0rHB4n81U8_gh0Yu-148" value="" style="shape=image;verticalLabelPosition=bottom;verticalAlign=top;imageAspect=0;aspect=fixed;image=data:image/svg+xml,PHN2ZyB4bWxucz0iaHR0cDovL3d3dy53My5vcmcvMjAwMC9zdmciIHZlcnNpb249IjEiIHZpZXdCb3g9IjAgMCA0OCA0OCIgZW5hYmxlLWJhY2tncm91bmQ9Im5ldyAwIDAgNDggNDgiPiYjeGE7ICAgIDxwYXRoIGZpbGw9IiMwMDk2ODgiIGQ9Ik0zOS4xLDdsLTMuNywwQzIyLjIsNy4yLDcuMSwyNC4xLDcsMzUuNGwwLDMuN2MwLDEsMC44LDEuOSwxLjksMS45bDcuNS0wLjFjMSwwLDEuOS0wLjksMS45LTEuOWwwLjItOC4yIGwtNC43LTRjMC0yLjYsMTAuNS0xMy4xLDEzLjItMTMuMmw0LjMsNC43bDcuOS0wLjJjMSwwLDEuOS0wLjksMS45LTEuOUw0MSw4LjlDNDEsNy44LDQwLjIsNywzOS4xLDd6Ii8+JiN4YTs8L3N2Zz4=;rotation=45;" parent="1" vertex="1">
          <mxGeometry x="1092.42" y="542" width="48" height="48" as="geometry" />
        </mxCell>
        <mxCell id="5Y2B0rHB4n81U8_gh0Yu-150" value="" style="endArrow=none;html=1;rounded=0;strokeColor=#FF0000;" parent="1" source="5Y2B0rHB4n81U8_gh0Yu-152" edge="1">
          <mxGeometry width="50" height="50" relative="1" as="geometry">
            <mxPoint x="1070" y="612" as="sourcePoint" />
            <mxPoint x="857" y="618" as="targetPoint" />
          </mxGeometry>
        </mxCell>
        <mxCell id="5Y2B0rHB4n81U8_gh0Yu-153" value="" style="endArrow=none;html=1;rounded=0;strokeColor=#FF0000;exitX=0;exitY=1;exitDx=0;exitDy=0;" parent="1" source="5Y2B0rHB4n81U8_gh0Yu-148" target="5Y2B0rHB4n81U8_gh0Yu-152" edge="1">
          <mxGeometry width="50" height="50" relative="1" as="geometry">
            <mxPoint x="1070" y="612" as="sourcePoint" />
            <mxPoint x="857" y="618" as="targetPoint" />
          </mxGeometry>
        </mxCell>
        <mxCell id="5Y2B0rHB4n81U8_gh0Yu-152" value="" style="image;html=1;image=img/lib/clip_art/networking/Firewall_02_128x128.png" parent="1" vertex="1">
          <mxGeometry x="940" y="594" width="40" height="40" as="geometry" />
        </mxCell>
        <mxCell id="5Y2B0rHB4n81U8_gh0Yu-164" value="" style="endArrow=none;html=1;rounded=0;strokeColor=#FF0000;entryX=0.271;entryY=0.529;entryDx=0;entryDy=0;entryPerimeter=0;" parent="1" target="5Y2B0rHB4n81U8_gh0Yu-163" edge="1">
          <mxGeometry width="50" height="50" relative="1" as="geometry">
            <mxPoint x="868" y="689.752424242424" as="sourcePoint" />
            <mxPoint x="1078" y="705" as="targetPoint" />
            <Array as="points" />
          </mxGeometry>
        </mxCell>
        <mxCell id="5Y2B0rHB4n81U8_gh0Yu-163" value="" style="image;html=1;image=img/lib/clip_art/networking/Cloud_Computer_Private_128x128.png" parent="1" vertex="1">
          <mxGeometry x="975" y="678" width="50" height="52" as="geometry" />
        </mxCell>
        <mxCell id="5Y2B0rHB4n81U8_gh0Yu-165" value="separate, sichere Leitung" style="text;strokeColor=none;align=center;fillColor=none;html=1;verticalAlign=middle;whiteSpace=wrap;rounded=0;" parent="1" vertex="1">
          <mxGeometry x="967" y="718.25" width="90" height="30" as="geometry" />
        </mxCell>
        <mxCell id="5Y2B0rHB4n81U8_gh0Yu-166" value="Fernwartung" style="text;strokeColor=none;align=center;fillColor=none;html=1;verticalAlign=middle;whiteSpace=wrap;rounded=0;" parent="1" vertex="1">
          <mxGeometry x="1104.79" y="652" width="60" height="30" as="geometry" />
        </mxCell>
        <mxCell id="5Y2B0rHB4n81U8_gh0Yu-167" value="Externe Telefonleitungen" style="text;strokeColor=none;align=center;fillColor=none;html=1;verticalAlign=middle;whiteSpace=wrap;rounded=0;rotation=-15;" parent="1" vertex="1">
          <mxGeometry x="1014" y="604" width="60" height="30" as="geometry" />
        </mxCell>
        <mxCell id="5Y2B0rHB4n81U8_gh0Yu-170" value="" style="endArrow=none;html=1;rounded=0;strokeColor=#FF0000;" parent="1" edge="1">
          <mxGeometry width="50" height="50" relative="1" as="geometry">
            <mxPoint x="942" y="630" as="sourcePoint" />
            <mxPoint x="859" y="633" as="targetPoint" />
          </mxGeometry>
        </mxCell>
        <mxCell id="5Y2B0rHB4n81U8_gh0Yu-171" value="" style="endArrow=none;html=1;rounded=0;strokeColor=#FF0000;exitX=0;exitY=1;exitDx=0;exitDy=0;" parent="1" edge="1">
          <mxGeometry width="50" height="50" relative="1" as="geometry">
            <mxPoint x="1082" y="570" as="sourcePoint" />
            <mxPoint x="980" y="610" as="targetPoint" />
          </mxGeometry>
        </mxCell>
        <mxCell id="5Y2B0rHB4n81U8_gh0Yu-172" value="" style="endArrow=none;html=1;rounded=0;strokeColor=#FF0000;exitX=0;exitY=1;exitDx=0;exitDy=0;" parent="1" edge="1">
          <mxGeometry width="50" height="50" relative="1" as="geometry">
            <mxPoint x="1082" y="575" as="sourcePoint" />
            <mxPoint x="980" y="615" as="targetPoint" />
          </mxGeometry>
        </mxCell>
        <mxCell id="5Y2B0rHB4n81U8_gh0Yu-173" value="" style="endArrow=none;html=1;rounded=0;strokeColor=#FF0000;exitX=0;exitY=1;exitDx=0;exitDy=0;" parent="1" edge="1">
          <mxGeometry width="50" height="50" relative="1" as="geometry">
            <mxPoint x="1082" y="581" as="sourcePoint" />
            <mxPoint x="980" y="621" as="targetPoint" />
          </mxGeometry>
        </mxCell>
        <mxCell id="5Y2B0rHB4n81U8_gh0Yu-174" value="FX, MFC, Leitungen" style="text;strokeColor=none;align=center;fillColor=none;html=1;verticalAlign=middle;whiteSpace=wrap;rounded=0;" parent="1" vertex="1">
          <mxGeometry x="880" y="630" width="60" height="30" as="geometry" />
        </mxCell>
        <mxCell id="5Y2B0rHB4n81U8_gh0Yu-175" value="telefonisch angebundene Stellen" style="text;strokeColor=none;align=center;fillColor=none;html=1;verticalAlign=middle;whiteSpace=wrap;rounded=0;" parent="1" vertex="1">
          <mxGeometry x="1086.42" y="480" width="60" height="30" as="geometry" />
        </mxCell>
        <mxCell id="5Y2B0rHB4n81U8_gh0Yu-176" value="" style="sketch=0;points=[[0.5,0,0],[1,0.5,0],[0.5,1,0],[0,0.5,0],[0.145,0.145,0],[0.8555,0.145,0],[0.855,0.8555,0],[0.145,0.855,0]];verticalLabelPosition=bottom;html=1;verticalAlign=top;aspect=fixed;align=center;pointerEvents=1;shape=mxgraph.cisco19.lock;fillColor=#005073;strokeColor=none;" parent="1" vertex="1">
          <mxGeometry x="818" y="277" width="50" height="50" as="geometry" />
        </mxCell>
        <mxCell id="5Y2B0rHB4n81U8_gh0Yu-179" value="" style="endArrow=none;html=1;rounded=0;entryX=0;entryY=1;entryDx=0;entryDy=0;exitX=0.5;exitY=0;exitDx=0;exitDy=0;fillColor=#FF0000;strokeColor=#FF0000;" parent="1" edge="1">
          <mxGeometry width="50" height="50" relative="1" as="geometry">
            <mxPoint x="831" y="600" as="sourcePoint" />
            <mxPoint x="852" y="88" as="targetPoint" />
          </mxGeometry>
        </mxCell>
        <mxCell id="5Y2B0rHB4n81U8_gh0Yu-180" value="" style="endArrow=none;html=1;rounded=0;entryX=0;entryY=1;entryDx=0;entryDy=0;exitX=0.5;exitY=0;exitDx=0;exitDy=0;fillColor=#FF0000;strokeColor=#FF0000;" parent="1" edge="1">
          <mxGeometry width="50" height="50" relative="1" as="geometry">
            <mxPoint x="841" y="598" as="sourcePoint" />
            <mxPoint x="862" y="86" as="targetPoint" />
          </mxGeometry>
        </mxCell>
        <mxCell id="5Y2B0rHB4n81U8_gh0Yu-186" value="Telefon, Funk, Wetterdaten" style="text;strokeColor=none;align=center;fillColor=none;html=1;verticalAlign=middle;whiteSpace=wrap;rounded=0;rotation=-90;" parent="1" vertex="1">
          <mxGeometry x="841" y="360" width="80" height="30" as="geometry" />
        </mxCell>
        <mxCell id="5Y2B0rHB4n81U8_gh0Yu-98" style="edgeStyle=none;rounded=0;orthogonalLoop=1;jettySize=auto;html=1;sourcePerimeterSpacing=5;endArrow=none;endFill=0;targetPerimeterSpacing=5;strokeColor=#2E17FF;" parent="1" edge="1">
          <mxGeometry relative="1" as="geometry">
            <mxPoint x="40" y="784" as="sourcePoint" />
            <mxPoint x="510" y="784" as="targetPoint" />
          </mxGeometry>
        </mxCell>
        <mxCell id="VGc6qAFPaCZZbTV_R3z2-25" value="" style="image;html=1;image=img/lib/clip_art/networking/Router_Icon_128x128.png" parent="1" vertex="1">
          <mxGeometry x="766.07" y="130" width="30" height="20" as="geometry" />
        </mxCell>
        <mxCell id="2mdyV1yEY9atnn7v1A7B-179" value="" style="shape=parallelogram;perimeter=parallelogramPerimeter;whiteSpace=wrap;html=1;fixedSize=1;size=15;strokeColor=none;" vertex="1" parent="1">
          <mxGeometry x="955" y="654" width="35" height="26" as="geometry" />
        </mxCell>
        <mxCell id="2mdyV1yEY9atnn7v1A7B-94" value="" style="group" vertex="1" connectable="0" parent="1">
          <mxGeometry x="123" y="441.9199999999999" width="836" height="59.0800000000001" as="geometry" />
        </mxCell>
        <mxCell id="2mdyV1yEY9atnn7v1A7B-68" value="" style="endArrow=none;html=1;rounded=0;" edge="1" parent="2mdyV1yEY9atnn7v1A7B-94">
          <mxGeometry width="50" height="50" relative="1" as="geometry">
            <mxPoint x="404" y="53.080000000000155" as="sourcePoint" />
            <mxPoint x="409.5" y="39" as="targetPoint" />
          </mxGeometry>
        </mxCell>
        <mxCell id="2mdyV1yEY9atnn7v1A7B-69" value="" style="endArrow=none;html=1;rounded=0;" edge="1" parent="2mdyV1yEY9atnn7v1A7B-94">
          <mxGeometry width="50" height="50" relative="1" as="geometry">
            <mxPoint x="419" y="18.080000000000155" as="sourcePoint" />
            <mxPoint x="424.5" y="4" as="targetPoint" />
          </mxGeometry>
        </mxCell>
        <mxCell id="2mdyV1yEY9atnn7v1A7B-90" value="" style="group" vertex="1" connectable="0" parent="2mdyV1yEY9atnn7v1A7B-94">
          <mxGeometry y="1.0800000000000978" width="836" height="58" as="geometry" />
        </mxCell>
        <mxCell id="2mdyV1yEY9atnn7v1A7B-32" value="" style="shape=parallelogram;perimeter=parallelogramPerimeter;whiteSpace=wrap;html=1;fixedSize=1;size=23.000000000000227;" vertex="1" parent="2mdyV1yEY9atnn7v1A7B-90">
          <mxGeometry x="725" width="111" height="58" as="geometry" />
        </mxCell>
        <mxCell id="2mdyV1yEY9atnn7v1A7B-45" value="" style="endArrow=none;html=1;rounded=0;" edge="1" parent="2mdyV1yEY9atnn7v1A7B-90">
          <mxGeometry width="50" height="50" relative="1" as="geometry">
            <mxPoint x="515" y="52" as="sourcePoint" />
            <mxPoint x="615" y="52" as="targetPoint" />
            <Array as="points">
              <mxPoint x="465" y="52" />
            </Array>
          </mxGeometry>
        </mxCell>
        <mxCell id="2mdyV1yEY9atnn7v1A7B-65" value="" style="endArrow=none;html=1;rounded=0;" edge="1" parent="2mdyV1yEY9atnn7v1A7B-90">
          <mxGeometry width="50" height="50" relative="1" as="geometry">
            <mxPoint x="535" y="3" as="sourcePoint" />
            <mxPoint x="635" y="3" as="targetPoint" />
            <Array as="points">
              <mxPoint x="485" y="3" />
            </Array>
          </mxGeometry>
        </mxCell>
        <mxCell id="2mdyV1yEY9atnn7v1A7B-66" value="" style="endArrow=none;html=1;rounded=0;exitX=0.647;exitY=1.01;exitDx=0;exitDy=0;exitPerimeter=0;" edge="1" parent="2mdyV1yEY9atnn7v1A7B-90">
          <mxGeometry width="50" height="50" relative="1" as="geometry">
            <mxPoint x="463.99999999999966" y="53.00000000000023" as="sourcePoint" />
            <mxPoint x="485" y="3" as="targetPoint" />
          </mxGeometry>
        </mxCell>
        <mxCell id="2mdyV1yEY9atnn7v1A7B-85" value="" style="group" vertex="1" connectable="0" parent="2mdyV1yEY9atnn7v1A7B-90">
          <mxGeometry x="507.87792843325474" y="5.097505275704634" width="76.74414313349052" height="41.80498944859073" as="geometry" />
        </mxCell>
        <mxCell id="2mdyV1yEY9atnn7v1A7B-75" value="" style="shape=parallelogram;perimeter=parallelogramPerimeter;whiteSpace=wrap;html=1;fixedSize=1;direction=west;rotation=-235;flipH=1;flipV=0;size=6.75;connectable=0;allowArrows=0;" vertex="1" parent="2mdyV1yEY9atnn7v1A7B-85">
          <mxGeometry x="10.372071566745262" y="7.902494724295366" width="24.5" height="10" as="geometry" />
        </mxCell>
        <mxCell id="2mdyV1yEY9atnn7v1A7B-78" value="" style="shape=parallelogram;perimeter=parallelogramPerimeter;whiteSpace=wrap;html=1;fixedSize=1;direction=west;rotation=-235;flipH=1;flipV=0;size=6.75;connectable=0;allowArrows=0;" vertex="1" parent="2mdyV1yEY9atnn7v1A7B-85">
          <mxGeometry x="24.372071566745262" y="7.902494724295366" width="24.5" height="10" as="geometry" />
        </mxCell>
        <mxCell id="2mdyV1yEY9atnn7v1A7B-79" value="" style="shape=parallelogram;perimeter=parallelogramPerimeter;whiteSpace=wrap;html=1;fixedSize=1;direction=west;rotation=-235;flipH=1;flipV=0;size=6.75;connectable=0;allowArrows=0;" vertex="1" parent="2mdyV1yEY9atnn7v1A7B-85">
          <mxGeometry x="38.87207156674526" y="7.902494724295366" width="24.5" height="10" as="geometry" />
        </mxCell>
        <mxCell id="2mdyV1yEY9atnn7v1A7B-80" value="" style="shape=parallelogram;perimeter=parallelogramPerimeter;whiteSpace=wrap;html=1;fixedSize=1;direction=west;rotation=-235;flipH=1;flipV=0;size=6.75;connectable=0;allowArrows=0;" vertex="1" parent="2mdyV1yEY9atnn7v1A7B-85">
          <mxGeometry x="-1.1279284332547377" y="23.902494724295366" width="24.5" height="10" as="geometry" />
        </mxCell>
        <mxCell id="2mdyV1yEY9atnn7v1A7B-81" value="" style="shape=parallelogram;perimeter=parallelogramPerimeter;whiteSpace=wrap;html=1;fixedSize=1;direction=west;rotation=-235;flipH=1;flipV=0;size=6.75;connectable=0;allowArrows=0;" vertex="1" parent="2mdyV1yEY9atnn7v1A7B-85">
          <mxGeometry x="12.872071566745262" y="23.902494724295366" width="24.5" height="10" as="geometry" />
        </mxCell>
        <mxCell id="2mdyV1yEY9atnn7v1A7B-82" value="" style="shape=parallelogram;perimeter=parallelogramPerimeter;whiteSpace=wrap;html=1;fixedSize=1;direction=west;rotation=-235;flipH=1;flipV=0;size=6.75;connectable=0;allowArrows=0;" vertex="1" parent="2mdyV1yEY9atnn7v1A7B-85">
          <mxGeometry x="26.872071566745262" y="23.902494724295366" width="24.5" height="10" as="geometry" />
        </mxCell>
        <mxCell id="2mdyV1yEY9atnn7v1A7B-83" value="" style="shape=parallelogram;perimeter=parallelogramPerimeter;whiteSpace=wrap;html=1;fixedSize=1;direction=west;rotation=-235;flipH=1;flipV=0;size=6.75;connectable=0;allowArrows=0;" vertex="1" parent="2mdyV1yEY9atnn7v1A7B-85">
          <mxGeometry x="53.37207156674526" y="7.902494724295366" width="24.5" height="10" as="geometry" />
        </mxCell>
        <mxCell id="2mdyV1yEY9atnn7v1A7B-84" value="" style="shape=parallelogram;perimeter=parallelogramPerimeter;whiteSpace=wrap;html=1;fixedSize=1;direction=west;rotation=-235;flipH=1;flipV=0;size=6.75;connectable=0;allowArrows=0;" vertex="1" parent="2mdyV1yEY9atnn7v1A7B-85">
          <mxGeometry x="41.37207156674526" y="23.902494724295366" width="24.5" height="10" as="geometry" />
        </mxCell>
        <mxCell id="2mdyV1yEY9atnn7v1A7B-88" value="" style="endArrow=none;html=1;rounded=0;fontSize=12;startSize=8;endSize=8;curved=1;" edge="1" parent="2mdyV1yEY9atnn7v1A7B-85">
          <mxGeometry width="50" height="50" relative="1" as="geometry">
            <mxPoint x="-17.627928433254738" y="28.642494724295375" as="sourcePoint" />
            <mxPoint x="98.37207156674526" y="29.142494724295375" as="targetPoint" />
          </mxGeometry>
        </mxCell>
        <mxCell id="2mdyV1yEY9atnn7v1A7B-86" value="" style="endArrow=classic;html=1;rounded=0;fontSize=12;startSize=8;endSize=8;curved=1;" edge="1" parent="2mdyV1yEY9atnn7v1A7B-90">
          <mxGeometry width="50" height="50" relative="1" as="geometry">
            <mxPoint x="496" y="18" as="sourcePoint" />
            <mxPoint x="604.5" y="18" as="targetPoint" />
          </mxGeometry>
        </mxCell>
        <mxCell id="2mdyV1yEY9atnn7v1A7B-87" value="" style="endArrow=none;html=1;rounded=0;fontSize=12;startSize=8;endSize=8;curved=1;" edge="1" parent="2mdyV1yEY9atnn7v1A7B-90">
          <mxGeometry width="50" height="50" relative="1" as="geometry">
            <mxPoint x="491" y="33" as="sourcePoint" />
            <mxPoint x="496" y="17.5" as="targetPoint" />
          </mxGeometry>
        </mxCell>
        <mxCell id="2mdyV1yEY9atnn7v1A7B-89" value="" style="shape=parallelogram;perimeter=parallelogramPerimeter;whiteSpace=wrap;html=1;fixedSize=1;size=15;strokeColor=none;" vertex="1" parent="2mdyV1yEY9atnn7v1A7B-90">
          <mxGeometry y="3" width="40" height="50" as="geometry" />
        </mxCell>
        <mxCell id="2mdyV1yEY9atnn7v1A7B-60" value="" style="endArrow=none;html=1;rounded=0;" edge="1" parent="2mdyV1yEY9atnn7v1A7B-90">
          <mxGeometry width="50" height="50" relative="1" as="geometry">
            <mxPoint x="304" y="52" as="sourcePoint" />
            <mxPoint x="404" y="52" as="targetPoint" />
            <Array as="points">
              <mxPoint x="5" y="52" />
            </Array>
          </mxGeometry>
        </mxCell>
        <mxCell id="2mdyV1yEY9atnn7v1A7B-64" value="" style="endArrow=none;html=1;rounded=0;" edge="1" parent="2mdyV1yEY9atnn7v1A7B-90">
          <mxGeometry width="50" height="50" relative="1" as="geometry">
            <mxPoint x="324.5" y="3" as="sourcePoint" />
            <mxPoint x="424.5" y="3" as="targetPoint" />
            <Array as="points">
              <mxPoint x="25.5" y="3" />
            </Array>
          </mxGeometry>
        </mxCell>
        <mxCell id="2mdyV1yEY9atnn7v1A7B-244" value="" style="endArrow=classic;html=1;rounded=0;fontSize=12;startSize=8;endSize=8;curved=1;" edge="1" parent="2mdyV1yEY9atnn7v1A7B-90">
          <mxGeometry width="50" height="50" relative="1" as="geometry">
            <mxPoint x="417" y="30.409999999999968" as="sourcePoint" />
            <mxPoint x="383" y="30" as="targetPoint" />
          </mxGeometry>
        </mxCell>
        <mxCell id="2mdyV1yEY9atnn7v1A7B-245" value="Ausgang" style="text;strokeColor=none;align=center;fillColor=none;html=1;verticalAlign=middle;whiteSpace=wrap;rounded=0;" vertex="1" parent="2mdyV1yEY9atnn7v1A7B-90">
          <mxGeometry x="404" y="14" width="81" height="30" as="geometry" />
        </mxCell>
        <mxCell id="2mdyV1yEY9atnn7v1A7B-253" value="Aufzug" style="text;strokeColor=none;align=center;fillColor=none;html=1;verticalAlign=middle;whiteSpace=wrap;rounded=0;" vertex="1" parent="2mdyV1yEY9atnn7v1A7B-90">
          <mxGeometry x="740" y="14" width="81" height="30" as="geometry" />
        </mxCell>
        <mxCell id="2mdyV1yEY9atnn7v1A7B-96" value="" style="group" vertex="1" connectable="0" parent="1">
          <mxGeometry x="199.99999999999966" y="518.6199999999999" width="733.1300000000003" height="71.38000000000011" as="geometry" />
        </mxCell>
        <mxCell id="5Y2B0rHB4n81U8_gh0Yu-66" value="" style="endArrow=none;html=1;rounded=0;exitX=0.647;exitY=1.01;exitDx=0;exitDy=0;exitPerimeter=0;" parent="2mdyV1yEY9atnn7v1A7B-96" edge="1">
          <mxGeometry width="50" height="50" relative="1" as="geometry">
            <mxPoint y="61.38000000000034" as="sourcePoint" />
            <mxPoint x="15.000000000000341" y="27.220000000000027" as="targetPoint" />
          </mxGeometry>
        </mxCell>
        <mxCell id="5Y2B0rHB4n81U8_gh0Yu-67" value="" style="endArrow=none;html=1;rounded=0;exitX=0.647;exitY=1.01;exitDx=0;exitDy=0;exitPerimeter=0;" parent="2mdyV1yEY9atnn7v1A7B-96" edge="1">
          <mxGeometry width="50" height="50" relative="1" as="geometry">
            <mxPoint x="218.00000000000006" y="61.38000000000034" as="sourcePoint" />
            <mxPoint x="240.00000000000034" y="1.3800000000001091" as="targetPoint" />
          </mxGeometry>
        </mxCell>
        <mxCell id="2mdyV1yEY9atnn7v1A7B-21" value="" style="endArrow=none;html=1;rounded=0;exitX=0.647;exitY=1.01;exitDx=0;exitDy=0;exitPerimeter=0;" edge="1" parent="2mdyV1yEY9atnn7v1A7B-96">
          <mxGeometry width="50" height="50" relative="1" as="geometry">
            <mxPoint x="105" y="61.38000000000034" as="sourcePoint" />
            <mxPoint x="120.00000000000034" y="27.38000000000011" as="targetPoint" />
          </mxGeometry>
        </mxCell>
        <mxCell id="2mdyV1yEY9atnn7v1A7B-51" value="" style="endArrow=none;html=1;rounded=0;" edge="1" parent="2mdyV1yEY9atnn7v1A7B-96">
          <mxGeometry width="50" height="50" relative="1" as="geometry">
            <mxPoint x="20.00000000000034" y="14.080000000000155" as="sourcePoint" />
            <mxPoint x="25.50000000000034" as="targetPoint" />
          </mxGeometry>
        </mxCell>
        <mxCell id="2mdyV1yEY9atnn7v1A7B-53" value="" style="group" vertex="1" connectable="0" parent="2mdyV1yEY9atnn7v1A7B-96">
          <mxGeometry x="61.00000000000034" y="1.1368683772161603e-13" width="672.13" height="1.3799999999999955" as="geometry" />
        </mxCell>
        <mxCell id="2mdyV1yEY9atnn7v1A7B-18" value="" style="endArrow=none;html=1;rounded=0;" edge="1" parent="2mdyV1yEY9atnn7v1A7B-53">
          <mxGeometry width="50" height="50" relative="1" as="geometry">
            <mxPoint as="sourcePoint" />
            <mxPoint x="73.25" as="targetPoint" />
            <Array as="points" />
          </mxGeometry>
        </mxCell>
        <mxCell id="2mdyV1yEY9atnn7v1A7B-19" value="" style="endArrow=none;html=1;rounded=0;" edge="1" parent="2mdyV1yEY9atnn7v1A7B-53">
          <mxGeometry width="50" height="50" relative="1" as="geometry">
            <mxPoint x="120" y="0.37999999999999545" as="sourcePoint" />
            <mxPoint x="193.25" y="0.37999999999999545" as="targetPoint" />
            <Array as="points" />
          </mxGeometry>
        </mxCell>
        <mxCell id="2mdyV1yEY9atnn7v1A7B-28" value="" style="endArrow=none;html=1;rounded=0;" edge="1" parent="2mdyV1yEY9atnn7v1A7B-53">
          <mxGeometry width="50" height="50" relative="1" as="geometry">
            <mxPoint x="191.37" y="0.37999999999999545" as="sourcePoint" />
            <mxPoint x="208" y="0.37999999999999545" as="targetPoint" />
            <Array as="points" />
          </mxGeometry>
        </mxCell>
        <mxCell id="2mdyV1yEY9atnn7v1A7B-29" value="" style="endArrow=none;html=1;rounded=0;" edge="1" parent="2mdyV1yEY9atnn7v1A7B-53">
          <mxGeometry width="50" height="50" relative="1" as="geometry">
            <mxPoint x="261" y="1.3799999999999955" as="sourcePoint" />
            <mxPoint x="277.63" y="1.3799999999999955" as="targetPoint" />
            <Array as="points" />
          </mxGeometry>
        </mxCell>
        <mxCell id="2mdyV1yEY9atnn7v1A7B-33" value="" style="endArrow=none;html=1;rounded=0;" edge="1" parent="2mdyV1yEY9atnn7v1A7B-53">
          <mxGeometry width="50" height="50" relative="1" as="geometry">
            <mxPoint x="482" y="1.3799999999999955" as="sourcePoint" />
            <mxPoint x="672.13" y="1.3799999999999955" as="targetPoint" />
            <Array as="points" />
          </mxGeometry>
        </mxCell>
        <mxCell id="2mdyV1yEY9atnn7v1A7B-35" value="" style="endArrow=none;html=1;rounded=0;" edge="1" parent="2mdyV1yEY9atnn7v1A7B-53">
          <mxGeometry width="50" height="50" relative="1" as="geometry">
            <mxPoint x="347" y="1.3799999999999955" as="sourcePoint" />
            <mxPoint x="363.63" y="1.3799999999999955" as="targetPoint" />
            <Array as="points" />
          </mxGeometry>
        </mxCell>
        <mxCell id="2mdyV1yEY9atnn7v1A7B-36" value="" style="endArrow=none;html=1;rounded=0;" edge="1" parent="2mdyV1yEY9atnn7v1A7B-53">
          <mxGeometry width="50" height="50" relative="1" as="geometry">
            <mxPoint x="334" y="1.3799999999999955" as="sourcePoint" />
            <mxPoint x="350.63" y="1.3799999999999955" as="targetPoint" />
            <Array as="points" />
          </mxGeometry>
        </mxCell>
        <mxCell id="2mdyV1yEY9atnn7v1A7B-37" value="" style="endArrow=none;html=1;rounded=0;" edge="1" parent="2mdyV1yEY9atnn7v1A7B-53">
          <mxGeometry width="50" height="50" relative="1" as="geometry">
            <mxPoint x="416" y="1.3799999999999955" as="sourcePoint" />
            <mxPoint x="432.63" y="1.3799999999999955" as="targetPoint" />
            <Array as="points" />
          </mxGeometry>
        </mxCell>
        <mxCell id="2mdyV1yEY9atnn7v1A7B-38" value="" style="endArrow=none;html=1;rounded=0;" edge="1" parent="2mdyV1yEY9atnn7v1A7B-53">
          <mxGeometry width="50" height="50" relative="1" as="geometry">
            <mxPoint x="426" y="1.3799999999999955" as="sourcePoint" />
            <mxPoint x="442.63" y="1.3799999999999955" as="targetPoint" />
            <Array as="points" />
          </mxGeometry>
        </mxCell>
        <mxCell id="2mdyV1yEY9atnn7v1A7B-39" value="" style="endArrow=none;html=1;rounded=0;" edge="1" parent="2mdyV1yEY9atnn7v1A7B-53">
          <mxGeometry width="50" height="50" relative="1" as="geometry">
            <mxPoint x="275.69000000000005" y="1.3799999999999955" as="sourcePoint" />
            <mxPoint x="292.31999999999994" y="1.3799999999999955" as="targetPoint" />
            <Array as="points" />
          </mxGeometry>
        </mxCell>
        <mxCell id="2mdyV1yEY9atnn7v1A7B-54" value="" style="endArrow=none;html=1;rounded=0;" edge="1" parent="2mdyV1yEY9atnn7v1A7B-96">
          <mxGeometry width="50" height="50" relative="1" as="geometry">
            <mxPoint x="25.00000000000034" y="0.38000000000010914" as="sourcePoint" />
            <mxPoint x="41.63000000000034" y="0.38000000000010914" as="targetPoint" />
            <Array as="points" />
          </mxGeometry>
        </mxCell>
        <mxCell id="2mdyV1yEY9atnn7v1A7B-91" value="" style="endArrow=none;html=1;rounded=0;exitX=0.647;exitY=1.01;exitDx=0;exitDy=0;exitPerimeter=0;" edge="1" parent="2mdyV1yEY9atnn7v1A7B-96">
          <mxGeometry width="50" height="50" relative="1" as="geometry">
            <mxPoint x="320.0000000000001" y="61.38000000000034" as="sourcePoint" />
            <mxPoint x="342.00000000000034" y="1.3800000000001091" as="targetPoint" />
          </mxGeometry>
        </mxCell>
        <mxCell id="2mdyV1yEY9atnn7v1A7B-92" value="" style="endArrow=none;html=1;rounded=0;exitX=0.647;exitY=1.01;exitDx=0;exitDy=0;exitPerimeter=0;" edge="1" parent="2mdyV1yEY9atnn7v1A7B-96">
          <mxGeometry width="50" height="50" relative="1" as="geometry">
            <mxPoint x="390.0000000000001" y="61.38000000000034" as="sourcePoint" />
            <mxPoint x="412.00000000000034" y="1.3800000000001091" as="targetPoint" />
          </mxGeometry>
        </mxCell>
        <mxCell id="2mdyV1yEY9atnn7v1A7B-93" value="" style="endArrow=none;html=1;rounded=0;exitX=0.647;exitY=1.01;exitDx=0;exitDy=0;exitPerimeter=0;" edge="1" parent="2mdyV1yEY9atnn7v1A7B-96">
          <mxGeometry width="50" height="50" relative="1" as="geometry">
            <mxPoint x="470.0000000000001" y="61.38000000000034" as="sourcePoint" />
            <mxPoint x="492.00000000000034" y="1.3800000000001091" as="targetPoint" />
          </mxGeometry>
        </mxCell>
        <mxCell id="2mdyV1yEY9atnn7v1A7B-202" value="Büro" style="text;strokeColor=none;align=center;fillColor=none;html=1;verticalAlign=middle;whiteSpace=wrap;rounded=0;" vertex="1" parent="2mdyV1yEY9atnn7v1A7B-96">
          <mxGeometry x="3.410605131648481e-13" y="38.38000000000011" width="50" height="30" as="geometry" />
        </mxCell>
        <mxCell id="2mdyV1yEY9atnn7v1A7B-204" value="Materiallager" style="text;strokeColor=none;align=center;fillColor=none;html=1;verticalAlign=middle;whiteSpace=wrap;rounded=0;" vertex="1" parent="2mdyV1yEY9atnn7v1A7B-96">
          <mxGeometry x="238.00000000000034" y="37.38000000000011" width="50" height="30" as="geometry" />
        </mxCell>
        <mxCell id="2mdyV1yEY9atnn7v1A7B-205" value="WC" style="text;strokeColor=none;align=center;fillColor=none;html=1;verticalAlign=middle;whiteSpace=wrap;rounded=0;" vertex="1" parent="2mdyV1yEY9atnn7v1A7B-96">
          <mxGeometry x="320.00000000000034" y="37.38000000000011" width="50" height="30" as="geometry" />
        </mxCell>
        <mxCell id="2mdyV1yEY9atnn7v1A7B-207" value="Umkleideraum" style="text;strokeColor=none;align=center;fillColor=none;html=1;verticalAlign=middle;whiteSpace=wrap;rounded=0;" vertex="1" parent="2mdyV1yEY9atnn7v1A7B-96">
          <mxGeometry x="480.00000000000034" y="38.38000000000011" width="81" height="30" as="geometry" />
        </mxCell>
        <mxCell id="2mdyV1yEY9atnn7v1A7B-206" value="WC /&amp;nbsp;&lt;div&gt;Dusche&lt;/div&gt;" style="text;strokeColor=none;align=center;fillColor=none;html=1;verticalAlign=middle;whiteSpace=wrap;rounded=0;" vertex="1" parent="2mdyV1yEY9atnn7v1A7B-96">
          <mxGeometry x="381.50000000000034" y="29.38000000000011" width="81" height="36" as="geometry" />
        </mxCell>
        <mxCell id="2mdyV1yEY9atnn7v1A7B-140" value="" style="group" vertex="1" connectable="0" parent="1">
          <mxGeometry x="249" y="360" width="740" height="69" as="geometry" />
        </mxCell>
        <mxCell id="2mdyV1yEY9atnn7v1A7B-3" value="" style="shape=parallelogram;perimeter=parallelogramPerimeter;whiteSpace=wrap;html=1;fixedSize=1;size=22;fillColor=#f8cecc;strokeColor=#b85450;" vertex="1" parent="2mdyV1yEY9atnn7v1A7B-140">
          <mxGeometry x="478" width="262" height="60" as="geometry" />
        </mxCell>
        <mxCell id="2mdyV1yEY9atnn7v1A7B-2" value="" style="shape=parallelogram;perimeter=parallelogramPerimeter;whiteSpace=wrap;html=1;fixedSize=1;size=20;fillColor=#f8cecc;strokeColor=#b85450;" vertex="1" parent="2mdyV1yEY9atnn7v1A7B-140">
          <mxGeometry x="311" width="191" height="60" as="geometry" />
        </mxCell>
        <mxCell id="5Y2B0rHB4n81U8_gh0Yu-57" value="" style="endArrow=none;html=1;rounded=0;entryX=1;entryY=0.25;entryDx=0;entryDy=0;" parent="2mdyV1yEY9atnn7v1A7B-140" edge="1">
          <mxGeometry width="50" height="50" relative="1" as="geometry">
            <mxPoint x="171" y="61" as="sourcePoint" />
            <mxPoint x="718.5" y="61" as="targetPoint" />
            <Array as="points">
              <mxPoint x="314" y="61" />
            </Array>
          </mxGeometry>
        </mxCell>
        <mxCell id="2mdyV1yEY9atnn7v1A7B-55" value="" style="endArrow=none;html=1;rounded=0;" edge="1" parent="2mdyV1yEY9atnn7v1A7B-140">
          <mxGeometry width="50" height="50" relative="1" as="geometry">
            <mxPoint x="1" y="62.700000000000045" as="sourcePoint" />
            <mxPoint x="6.5" y="48.61999999999989" as="targetPoint" />
          </mxGeometry>
        </mxCell>
        <mxCell id="2mdyV1yEY9atnn7v1A7B-57" value="" style="endArrow=none;html=1;rounded=0;entryX=0.198;entryY=0.004;entryDx=0;entryDy=0;entryPerimeter=0;" edge="1" parent="2mdyV1yEY9atnn7v1A7B-140" target="5Y2B0rHB4n81U8_gh0Yu-13">
          <mxGeometry width="50" height="50" relative="1" as="geometry">
            <mxPoint x="14" y="28.700000000000045" as="sourcePoint" />
            <mxPoint x="19.5" y="14.61999999999989" as="targetPoint" />
          </mxGeometry>
        </mxCell>
        <mxCell id="2mdyV1yEY9atnn7v1A7B-8" value="Schulungsraum" style="text;strokeColor=none;align=center;fillColor=none;html=1;verticalAlign=middle;whiteSpace=wrap;rounded=0;" vertex="1" parent="2mdyV1yEY9atnn7v1A7B-140">
          <mxGeometry x="-29" y="39" width="170" height="30" as="geometry" />
        </mxCell>
        <mxCell id="2mdyV1yEY9atnn7v1A7B-249" value="Simulator" style="text;strokeColor=none;align=center;fillColor=none;html=1;verticalAlign=middle;whiteSpace=wrap;rounded=0;" vertex="1" parent="2mdyV1yEY9atnn7v1A7B-140">
          <mxGeometry x="260.9999999999999" y="37.00000000000006" width="170" height="30" as="geometry" />
        </mxCell>
        <mxCell id="2mdyV1yEY9atnn7v1A7B-250" value="Server (Simulator)" style="text;strokeColor=none;align=center;fillColor=none;html=1;verticalAlign=middle;whiteSpace=wrap;rounded=0;" vertex="1" parent="2mdyV1yEY9atnn7v1A7B-140">
          <mxGeometry x="460.9999999999999" y="37.00000000000006" width="170" height="30" as="geometry" />
        </mxCell>
        <mxCell id="2mdyV1yEY9atnn7v1A7B-120" value="" style="group" vertex="1" connectable="0" parent="1">
          <mxGeometry x="129" y="673.0799999999999" width="836" height="58" as="geometry" />
        </mxCell>
        <mxCell id="2mdyV1yEY9atnn7v1A7B-121" value="" style="shape=parallelogram;perimeter=parallelogramPerimeter;whiteSpace=wrap;html=1;fixedSize=1;size=23.000000000000227;" vertex="1" parent="2mdyV1yEY9atnn7v1A7B-120">
          <mxGeometry x="725" width="111" height="58" as="geometry" />
        </mxCell>
        <mxCell id="2mdyV1yEY9atnn7v1A7B-122" value="" style="endArrow=none;html=1;rounded=0;" edge="1" parent="2mdyV1yEY9atnn7v1A7B-120">
          <mxGeometry width="50" height="50" relative="1" as="geometry">
            <mxPoint x="515" y="52" as="sourcePoint" />
            <mxPoint x="615" y="52" as="targetPoint" />
            <Array as="points">
              <mxPoint x="451" y="51.92000000000007" />
            </Array>
          </mxGeometry>
        </mxCell>
        <mxCell id="2mdyV1yEY9atnn7v1A7B-123" value="" style="endArrow=none;html=1;rounded=0;" edge="1" parent="2mdyV1yEY9atnn7v1A7B-120">
          <mxGeometry width="50" height="50" relative="1" as="geometry">
            <mxPoint x="535" y="3" as="sourcePoint" />
            <mxPoint x="635" y="3" as="targetPoint" />
            <Array as="points">
              <mxPoint x="485" y="3" />
            </Array>
          </mxGeometry>
        </mxCell>
        <mxCell id="2mdyV1yEY9atnn7v1A7B-124" value="" style="endArrow=none;html=1;rounded=0;exitX=0.647;exitY=1.01;exitDx=0;exitDy=0;exitPerimeter=0;" edge="1" parent="2mdyV1yEY9atnn7v1A7B-120">
          <mxGeometry width="50" height="50" relative="1" as="geometry">
            <mxPoint x="451.99999999999966" y="53.00000000000023" as="sourcePoint" />
            <mxPoint x="473" y="3" as="targetPoint" />
          </mxGeometry>
        </mxCell>
        <mxCell id="2mdyV1yEY9atnn7v1A7B-125" value="" style="group" vertex="1" connectable="0" parent="2mdyV1yEY9atnn7v1A7B-120">
          <mxGeometry x="507.87792843325474" y="5.097505275704634" width="76.74414313349052" height="41.80498944859073" as="geometry" />
        </mxCell>
        <mxCell id="2mdyV1yEY9atnn7v1A7B-126" value="" style="shape=parallelogram;perimeter=parallelogramPerimeter;whiteSpace=wrap;html=1;fixedSize=1;direction=west;rotation=-235;flipH=1;flipV=0;size=6.75;connectable=0;allowArrows=0;" vertex="1" parent="2mdyV1yEY9atnn7v1A7B-125">
          <mxGeometry x="10.372071566745262" y="7.902494724295366" width="24.5" height="10" as="geometry" />
        </mxCell>
        <mxCell id="2mdyV1yEY9atnn7v1A7B-127" value="" style="shape=parallelogram;perimeter=parallelogramPerimeter;whiteSpace=wrap;html=1;fixedSize=1;direction=west;rotation=-235;flipH=1;flipV=0;size=6.75;connectable=0;allowArrows=0;" vertex="1" parent="2mdyV1yEY9atnn7v1A7B-125">
          <mxGeometry x="24.372071566745262" y="7.902494724295366" width="24.5" height="10" as="geometry" />
        </mxCell>
        <mxCell id="2mdyV1yEY9atnn7v1A7B-128" value="" style="shape=parallelogram;perimeter=parallelogramPerimeter;whiteSpace=wrap;html=1;fixedSize=1;direction=west;rotation=-235;flipH=1;flipV=0;size=6.75;connectable=0;allowArrows=0;" vertex="1" parent="2mdyV1yEY9atnn7v1A7B-125">
          <mxGeometry x="38.87207156674526" y="7.902494724295366" width="24.5" height="10" as="geometry" />
        </mxCell>
        <mxCell id="2mdyV1yEY9atnn7v1A7B-129" value="" style="shape=parallelogram;perimeter=parallelogramPerimeter;whiteSpace=wrap;html=1;fixedSize=1;direction=west;rotation=-235;flipH=1;flipV=0;size=6.75;connectable=0;allowArrows=0;" vertex="1" parent="2mdyV1yEY9atnn7v1A7B-125">
          <mxGeometry x="-1.1279284332547377" y="23.902494724295366" width="24.5" height="10" as="geometry" />
        </mxCell>
        <mxCell id="2mdyV1yEY9atnn7v1A7B-130" value="" style="shape=parallelogram;perimeter=parallelogramPerimeter;whiteSpace=wrap;html=1;fixedSize=1;direction=west;rotation=-235;flipH=1;flipV=0;size=6.75;connectable=0;allowArrows=0;" vertex="1" parent="2mdyV1yEY9atnn7v1A7B-125">
          <mxGeometry x="12.872071566745262" y="23.902494724295366" width="24.5" height="10" as="geometry" />
        </mxCell>
        <mxCell id="2mdyV1yEY9atnn7v1A7B-131" value="" style="shape=parallelogram;perimeter=parallelogramPerimeter;whiteSpace=wrap;html=1;fixedSize=1;direction=west;rotation=-235;flipH=1;flipV=0;size=6.75;connectable=0;allowArrows=0;" vertex="1" parent="2mdyV1yEY9atnn7v1A7B-125">
          <mxGeometry x="26.872071566745262" y="23.902494724295366" width="24.5" height="10" as="geometry" />
        </mxCell>
        <mxCell id="2mdyV1yEY9atnn7v1A7B-132" value="" style="shape=parallelogram;perimeter=parallelogramPerimeter;whiteSpace=wrap;html=1;fixedSize=1;direction=west;rotation=-235;flipH=1;flipV=0;size=6.75;connectable=0;allowArrows=0;" vertex="1" parent="2mdyV1yEY9atnn7v1A7B-125">
          <mxGeometry x="53.37207156674526" y="7.902494724295366" width="24.5" height="10" as="geometry" />
        </mxCell>
        <mxCell id="2mdyV1yEY9atnn7v1A7B-133" value="" style="shape=parallelogram;perimeter=parallelogramPerimeter;whiteSpace=wrap;html=1;fixedSize=1;direction=west;rotation=-235;flipH=1;flipV=0;size=6.75;connectable=0;allowArrows=0;" vertex="1" parent="2mdyV1yEY9atnn7v1A7B-125">
          <mxGeometry x="41.37207156674526" y="23.902494724295366" width="24.5" height="10" as="geometry" />
        </mxCell>
        <mxCell id="2mdyV1yEY9atnn7v1A7B-134" value="" style="endArrow=none;html=1;rounded=0;fontSize=12;startSize=8;endSize=8;curved=1;" edge="1" parent="2mdyV1yEY9atnn7v1A7B-125">
          <mxGeometry width="50" height="50" relative="1" as="geometry">
            <mxPoint x="-17.627928433254738" y="28.642494724295375" as="sourcePoint" />
            <mxPoint x="98.37207156674526" y="29.142494724295375" as="targetPoint" />
          </mxGeometry>
        </mxCell>
        <mxCell id="2mdyV1yEY9atnn7v1A7B-135" value="" style="endArrow=classic;html=1;rounded=0;fontSize=12;startSize=8;endSize=8;curved=1;" edge="1" parent="2mdyV1yEY9atnn7v1A7B-120">
          <mxGeometry width="50" height="50" relative="1" as="geometry">
            <mxPoint x="496" y="18" as="sourcePoint" />
            <mxPoint x="604.5" y="18" as="targetPoint" />
          </mxGeometry>
        </mxCell>
        <mxCell id="2mdyV1yEY9atnn7v1A7B-136" value="" style="endArrow=none;html=1;rounded=0;fontSize=12;startSize=8;endSize=8;curved=1;" edge="1" parent="2mdyV1yEY9atnn7v1A7B-120">
          <mxGeometry width="50" height="50" relative="1" as="geometry">
            <mxPoint x="491" y="33" as="sourcePoint" />
            <mxPoint x="496" y="17.5" as="targetPoint" />
          </mxGeometry>
        </mxCell>
        <mxCell id="2mdyV1yEY9atnn7v1A7B-138" value="" style="endArrow=none;html=1;rounded=0;" edge="1" parent="2mdyV1yEY9atnn7v1A7B-120">
          <mxGeometry width="50" height="50" relative="1" as="geometry">
            <mxPoint x="231" y="51.92000000000007" as="sourcePoint" />
            <mxPoint x="231" y="51.92000000000007" as="targetPoint" />
            <Array as="points">
              <mxPoint x="151" y="51.92000000000007" />
            </Array>
          </mxGeometry>
        </mxCell>
        <mxCell id="2mdyV1yEY9atnn7v1A7B-139" value="" style="endArrow=none;html=1;rounded=0;" edge="1" parent="2mdyV1yEY9atnn7v1A7B-120">
          <mxGeometry width="50" height="50" relative="1" as="geometry">
            <mxPoint x="325.5" y="3" as="sourcePoint" />
            <mxPoint x="491" y="2.9200000000000728" as="targetPoint" />
            <Array as="points">
              <mxPoint x="172" y="2.9200000000000728" />
            </Array>
          </mxGeometry>
        </mxCell>
        <mxCell id="2mdyV1yEY9atnn7v1A7B-170" value="" style="endArrow=none;html=1;rounded=0;" edge="1" parent="2mdyV1yEY9atnn7v1A7B-120">
          <mxGeometry width="50" height="50" relative="1" as="geometry">
            <mxPoint x="121" y="51.92000000000007" as="sourcePoint" />
            <mxPoint x="121" y="51.92000000000007" as="targetPoint" />
            <Array as="points">
              <mxPoint y="52.000000000000114" />
            </Array>
          </mxGeometry>
        </mxCell>
        <mxCell id="2mdyV1yEY9atnn7v1A7B-180" value="" style="endArrow=none;html=1;rounded=0;" edge="1" parent="2mdyV1yEY9atnn7v1A7B-120">
          <mxGeometry width="50" height="50" relative="1" as="geometry">
            <mxPoint x="436" y="51.98000000000002" as="sourcePoint" />
            <mxPoint x="453" y="51.90000000000009" as="targetPoint" />
            <Array as="points">
              <mxPoint x="281" y="51.92000000000007" />
            </Array>
          </mxGeometry>
        </mxCell>
        <mxCell id="2mdyV1yEY9atnn7v1A7B-107" value="" style="endArrow=none;html=1;rounded=0;" edge="1" parent="2mdyV1yEY9atnn7v1A7B-120">
          <mxGeometry width="50" height="50" relative="1" as="geometry">
            <mxPoint x="701" y="57.92000000000007" as="sourcePoint" />
            <mxPoint x="741.13" y="58.00000000000007" as="targetPoint" />
            <Array as="points" />
          </mxGeometry>
        </mxCell>
        <mxCell id="2mdyV1yEY9atnn7v1A7B-252" value="Aufzug" style="text;strokeColor=none;align=center;fillColor=none;html=1;verticalAlign=middle;whiteSpace=wrap;rounded=0;" vertex="1" parent="2mdyV1yEY9atnn7v1A7B-120">
          <mxGeometry x="740" y="11.000000000000114" width="81" height="30" as="geometry" />
        </mxCell>
        <mxCell id="2mdyV1yEY9atnn7v1A7B-137" value="" style="shape=parallelogram;perimeter=parallelogramPerimeter;whiteSpace=wrap;html=1;fixedSize=1;size=15;strokeColor=none;" vertex="1" parent="1">
          <mxGeometry x="109" y="726" width="40" height="35" as="geometry" />
        </mxCell>
        <mxCell id="2mdyV1yEY9atnn7v1A7B-97" value="" style="group" vertex="1" connectable="0" parent="1">
          <mxGeometry x="95.99999999999966" y="751.9999999999999" width="733.1300000000003" height="68.00000000000011" as="geometry" />
        </mxCell>
        <mxCell id="2mdyV1yEY9atnn7v1A7B-98" value="" style="endArrow=none;html=1;rounded=0;exitX=0.647;exitY=1.01;exitDx=0;exitDy=0;exitPerimeter=0;entryX=0.026;entryY=0.718;entryDx=0;entryDy=0;entryPerimeter=0;" edge="1" parent="2mdyV1yEY9atnn7v1A7B-97" target="5Y2B0rHB4n81U8_gh0Yu-9">
          <mxGeometry width="50" height="50" relative="1" as="geometry">
            <mxPoint y="61.38000000000034" as="sourcePoint" />
            <mxPoint x="15.000000000000341" y="27.220000000000027" as="targetPoint" />
          </mxGeometry>
        </mxCell>
        <mxCell id="2mdyV1yEY9atnn7v1A7B-100" value="" style="endArrow=none;html=1;rounded=0;exitX=0.647;exitY=1.01;exitDx=0;exitDy=0;exitPerimeter=0;" edge="1" parent="2mdyV1yEY9atnn7v1A7B-97">
          <mxGeometry width="50" height="50" relative="1" as="geometry">
            <mxPoint x="105" y="61.38000000000034" as="sourcePoint" />
            <mxPoint x="120.00000000000034" y="27.38000000000011" as="targetPoint" />
          </mxGeometry>
        </mxCell>
        <mxCell id="2mdyV1yEY9atnn7v1A7B-102" value="" style="group" vertex="1" connectable="0" parent="2mdyV1yEY9atnn7v1A7B-97">
          <mxGeometry x="84.00000000000034" y="1.1368683772161603e-13" width="672.13" height="1.3799999999999955" as="geometry" />
        </mxCell>
        <mxCell id="2mdyV1yEY9atnn7v1A7B-103" value="" style="endArrow=none;html=1;rounded=0;" edge="1" parent="2mdyV1yEY9atnn7v1A7B-102">
          <mxGeometry width="50" height="50" relative="1" as="geometry">
            <mxPoint x="29" as="sourcePoint" />
            <mxPoint x="182" as="targetPoint" />
            <Array as="points" />
          </mxGeometry>
        </mxCell>
        <mxCell id="2mdyV1yEY9atnn7v1A7B-106" value="" style="endArrow=none;html=1;rounded=0;" edge="1" parent="2mdyV1yEY9atnn7v1A7B-102">
          <mxGeometry width="50" height="50" relative="1" as="geometry">
            <mxPoint x="227" y="1" as="sourcePoint" />
            <mxPoint x="343" y="1" as="targetPoint" />
            <Array as="points" />
          </mxGeometry>
        </mxCell>
        <mxCell id="2mdyV1yEY9atnn7v1A7B-110" value="" style="endArrow=none;html=1;rounded=0;" edge="1" parent="2mdyV1yEY9atnn7v1A7B-102">
          <mxGeometry width="50" height="50" relative="1" as="geometry">
            <mxPoint x="452" y="1.3799999999999955" as="sourcePoint" />
            <mxPoint x="509" y="1" as="targetPoint" />
            <Array as="points" />
          </mxGeometry>
        </mxCell>
        <mxCell id="2mdyV1yEY9atnn7v1A7B-113" value="" style="endArrow=none;html=1;rounded=0;" edge="1" parent="2mdyV1yEY9atnn7v1A7B-97">
          <mxGeometry width="50" height="50" relative="1" as="geometry">
            <mxPoint x="24.00000000000034" y="1.1368683772161603e-13" as="sourcePoint" />
            <mxPoint x="44.00000000000034" y="1.1368683772161603e-13" as="targetPoint" />
            <Array as="points" />
          </mxGeometry>
        </mxCell>
        <mxCell id="2mdyV1yEY9atnn7v1A7B-114" value="" style="endArrow=none;html=1;rounded=0;exitX=0.647;exitY=1.01;exitDx=0;exitDy=0;exitPerimeter=0;" edge="1" parent="2mdyV1yEY9atnn7v1A7B-97">
          <mxGeometry width="50" height="50" relative="1" as="geometry">
            <mxPoint x="362.0000000000001" y="61.38000000000034" as="sourcePoint" />
            <mxPoint x="384.00000000000034" y="1.3800000000001091" as="targetPoint" />
          </mxGeometry>
        </mxCell>
        <mxCell id="2mdyV1yEY9atnn7v1A7B-115" value="" style="endArrow=none;html=1;rounded=0;exitX=0.647;exitY=1.01;exitDx=0;exitDy=0;exitPerimeter=0;" edge="1" parent="2mdyV1yEY9atnn7v1A7B-97">
          <mxGeometry width="50" height="50" relative="1" as="geometry">
            <mxPoint x="455.0000000000001" y="61.38000000000034" as="sourcePoint" />
            <mxPoint x="477.00000000000034" y="1.3800000000001091" as="targetPoint" />
          </mxGeometry>
        </mxCell>
        <mxCell id="2mdyV1yEY9atnn7v1A7B-116" value="" style="endArrow=none;html=1;rounded=0;exitX=0.647;exitY=1.01;exitDx=0;exitDy=0;exitPerimeter=0;" edge="1" parent="2mdyV1yEY9atnn7v1A7B-97">
          <mxGeometry width="50" height="50" relative="1" as="geometry">
            <mxPoint x="548.0000000000001" y="61.38000000000034" as="sourcePoint" />
            <mxPoint x="570.0000000000003" y="1.3800000000001091" as="targetPoint" />
          </mxGeometry>
        </mxCell>
        <mxCell id="2mdyV1yEY9atnn7v1A7B-182" value="" style="endArrow=none;html=1;rounded=0;" edge="1" parent="2mdyV1yEY9atnn7v1A7B-97">
          <mxGeometry width="50" height="50" relative="1" as="geometry">
            <mxPoint x="724.0000000000003" y="8.000000000000114" as="sourcePoint" />
            <mxPoint x="735.0000000000003" y="-20.999999999999886" as="targetPoint" />
          </mxGeometry>
        </mxCell>
        <mxCell id="2mdyV1yEY9atnn7v1A7B-183" value="" style="endArrow=none;html=1;rounded=0;" edge="1" parent="2mdyV1yEY9atnn7v1A7B-97">
          <mxGeometry width="50" height="50" relative="1" as="geometry">
            <mxPoint x="704.0000000000003" y="61.38000000000011" as="sourcePoint" />
            <mxPoint x="715.0000000000003" y="32.38000000000011" as="targetPoint" />
          </mxGeometry>
        </mxCell>
        <mxCell id="2mdyV1yEY9atnn7v1A7B-209" value="Werkstatt" style="text;strokeColor=none;align=center;fillColor=none;html=1;verticalAlign=middle;whiteSpace=wrap;rounded=0;" vertex="1" parent="2mdyV1yEY9atnn7v1A7B-97">
          <mxGeometry x="104" y="38" width="76" height="30" as="geometry" />
        </mxCell>
        <mxCell id="2mdyV1yEY9atnn7v1A7B-210" value="Materiallager" style="text;strokeColor=none;align=center;fillColor=none;html=1;verticalAlign=middle;whiteSpace=wrap;rounded=0;rotation=0;" vertex="1" parent="2mdyV1yEY9atnn7v1A7B-97">
          <mxGeometry x="362" y="38" width="91" height="30" as="geometry" />
        </mxCell>
        <mxCell id="2mdyV1yEY9atnn7v1A7B-211" value="WC" style="text;strokeColor=none;align=center;fillColor=none;html=1;verticalAlign=middle;whiteSpace=wrap;rounded=0;" vertex="1" parent="2mdyV1yEY9atnn7v1A7B-97">
          <mxGeometry x="449.00000000000034" y="38.000000000000114" width="50" height="30" as="geometry" />
        </mxCell>
        <mxCell id="2mdyV1yEY9atnn7v1A7B-173" value="" style="endArrow=none;html=1;rounded=0;exitX=0.647;exitY=1.01;exitDx=0;exitDy=0;exitPerimeter=0;" edge="1" parent="1">
          <mxGeometry width="50" height="50" relative="1" as="geometry">
            <mxPoint x="280.99999999999966" y="725.0000000000001" as="sourcePoint" />
            <mxPoint x="302" y="674.9999999999999" as="targetPoint" />
          </mxGeometry>
        </mxCell>
        <mxCell id="2mdyV1yEY9atnn7v1A7B-174" value="" style="endArrow=none;html=1;rounded=0;exitX=0.647;exitY=1.01;exitDx=0;exitDy=0;exitPerimeter=0;" edge="1" parent="1">
          <mxGeometry width="50" height="50" relative="1" as="geometry">
            <mxPoint x="248.99999999999966" y="725.0000000000001" as="sourcePoint" />
            <mxPoint x="270" y="674.9999999999999" as="targetPoint" />
          </mxGeometry>
        </mxCell>
        <mxCell id="2mdyV1yEY9atnn7v1A7B-178" value="" style="endArrow=none;html=1;rounded=0;entryX=0.118;entryY=1.005;entryDx=0;entryDy=0;entryPerimeter=0;exitX=0.163;exitY=1.005;exitDx=0;exitDy=0;exitPerimeter=0;" edge="1" parent="1" target="2mdyV1yEY9atnn7v1A7B-143">
          <mxGeometry width="50" height="50" relative="1" as="geometry">
            <mxPoint x="157" y="654" as="sourcePoint" />
            <mxPoint x="273" y="654" as="targetPoint" />
            <Array as="points" />
          </mxGeometry>
        </mxCell>
        <mxCell id="2mdyV1yEY9atnn7v1A7B-200" value="Büro" style="text;strokeColor=none;align=center;fillColor=none;html=1;verticalAlign=middle;whiteSpace=wrap;rounded=0;" vertex="1" parent="1">
          <mxGeometry x="146" y="422.7" width="50" height="30" as="geometry" />
        </mxCell>
        <mxCell id="2mdyV1yEY9atnn7v1A7B-201" value="Büro" style="text;strokeColor=none;align=center;fillColor=none;html=1;verticalAlign=middle;whiteSpace=wrap;rounded=0;" vertex="1" parent="1">
          <mxGeometry x="96" y="557" width="50" height="30" as="geometry" />
        </mxCell>
        <mxCell id="2mdyV1yEY9atnn7v1A7B-203" value="Büro" style="text;strokeColor=none;align=center;fillColor=none;html=1;verticalAlign=middle;whiteSpace=wrap;rounded=0;" vertex="1" parent="1">
          <mxGeometry x="304" y="557" width="50" height="30" as="geometry" />
        </mxCell>
        <mxCell id="2mdyV1yEY9atnn7v1A7B-59" value="" style="endArrow=none;html=1;rounded=0;" edge="1" parent="1">
          <mxGeometry width="50" height="50" relative="1" as="geometry">
            <mxPoint x="249" y="422.7" as="sourcePoint" />
            <mxPoint x="360" y="423" as="targetPoint" />
            <Array as="points" />
          </mxGeometry>
        </mxCell>
        <mxCell id="2mdyV1yEY9atnn7v1A7B-208" value="Büro" style="text;strokeColor=none;align=center;fillColor=none;html=1;verticalAlign=middle;whiteSpace=wrap;rounded=0;" vertex="1" parent="1">
          <mxGeometry x="96" y="789" width="50" height="30" as="geometry" />
        </mxCell>
        <mxCell id="2mdyV1yEY9atnn7v1A7B-212" value="" style="shape=parallelogram;perimeter=parallelogramPerimeter;whiteSpace=wrap;html=1;fixedSize=1;size=571;strokeColor=none;" vertex="1" parent="1">
          <mxGeometry x="687" y="792" width="40" height="35" as="geometry" />
        </mxCell>
        <mxCell id="2mdyV1yEY9atnn7v1A7B-213" value="" style="shape=parallelogram;perimeter=parallelogramPerimeter;whiteSpace=wrap;html=1;fixedSize=1;size=15;strokeColor=none;" vertex="1" parent="1">
          <mxGeometry x="687" y="792" width="70" height="35" as="geometry" />
        </mxCell>
        <mxCell id="2mdyV1yEY9atnn7v1A7B-108" value="" style="endArrow=none;html=1;rounded=0;" edge="1" parent="1">
          <mxGeometry width="50" height="50" relative="1" as="geometry">
            <mxPoint x="548" y="752.65" as="sourcePoint" />
            <mxPoint x="584" y="752.27" as="targetPoint" />
            <Array as="points" />
          </mxGeometry>
        </mxCell>
        <mxCell id="2mdyV1yEY9atnn7v1A7B-239" value="Eingang" style="text;strokeColor=none;align=center;fillColor=none;html=1;verticalAlign=middle;whiteSpace=wrap;rounded=0;" vertex="1" parent="1">
          <mxGeometry x="680.5" y="797" width="81" height="30" as="geometry" />
        </mxCell>
        <mxCell id="2mdyV1yEY9atnn7v1A7B-241" value="" style="edgeStyle=none;curved=1;rounded=0;orthogonalLoop=1;jettySize=auto;html=1;fontSize=12;startSize=8;endSize=8;" edge="1" parent="1" source="2mdyV1yEY9atnn7v1A7B-240" target="5Y2B0rHB4n81U8_gh0Yu-167">
          <mxGeometry relative="1" as="geometry" />
        </mxCell>
        <mxCell id="2mdyV1yEY9atnn7v1A7B-240" value="Notausgang" style="text;strokeColor=none;align=center;fillColor=none;html=1;verticalAlign=middle;whiteSpace=wrap;rounded=0;" vertex="1" parent="1">
          <mxGeometry x="903" y="648" width="81" height="30" as="geometry" />
        </mxCell>
        <mxCell id="2mdyV1yEY9atnn7v1A7B-242" value="Notausgang" style="text;strokeColor=none;align=center;fillColor=none;html=1;verticalAlign=middle;whiteSpace=wrap;rounded=0;" vertex="1" parent="1">
          <mxGeometry x="100" y="726" width="81" height="30" as="geometry" />
        </mxCell>
        <mxCell id="2mdyV1yEY9atnn7v1A7B-243" value="Lichthof" style="text;strokeColor=none;align=center;fillColor=none;html=1;verticalAlign=middle;whiteSpace=wrap;rounded=0;" vertex="1" parent="1">
          <mxGeometry x="240" y="454.9" width="81" height="30" as="geometry" />
        </mxCell>
        <mxCell id="2mdyV1yEY9atnn7v1A7B-246" value="Aufenthaltsraum" style="text;strokeColor=none;align=center;fillColor=none;html=1;verticalAlign=middle;whiteSpace=wrap;rounded=0;" vertex="1" parent="1">
          <mxGeometry x="160" y="700" width="50" height="30" as="geometry" />
        </mxCell>
        <mxCell id="2mdyV1yEY9atnn7v1A7B-248" value="Platzkontrolle" style="text;strokeColor=none;align=center;fillColor=none;html=1;verticalAlign=middle;whiteSpace=wrap;rounded=0;" vertex="1" parent="1">
          <mxGeometry x="607.0699999999999" y="173.00000000000006" width="170" height="30" as="geometry" />
        </mxCell>
      </root>
    </mxGraphModel>
  </diagram>
</mxfile>
